<?xml version="1.0" encoding="UTF-8"?>
<svg width="41px" height="41px" viewBox="0 0 41 41" version="1.1" xmlns="http://www.w3.org/2000/svg" xmlns:xlink="http://www.w3.org/1999/xlink">
    <!-- Generator: Sketch 52.1 (67048) - http://www.bohemiancoding.com/sketch -->
    <title>sendcloud</title>
    <desc>Created with Sketch.</desc>
    <g id="Page-1" stroke="none" stroke-width="1" fill="none" fill-rule="evenodd">
        <g id="Icon">
            <path d="M0,20.5001619 C0,9.17771793 9.17811406,0 20.4996763,0 C31.8218859,0 41,9.17771793 41,20.5001619 C41,31.821311 31.8218859,41 20.4996763,41 C9.17811406,41 0,31.821311 0,20.5001619 Z" id="Baclground" fill="#284A9F"></path>
            <g id="Box" transform="translate(9.000000, 9.000000)">
                <path d="M16.8395282,1.87967848 C16.6583374,2.07655371 16.4722306,2.12454351 16.3048516,2.20319997 C12.7835706,3.86083794 9.26416245,5.52292375 5.7358586,7.16487726 C5.36294273,7.33857693 5.20258656,7.53100433 5.2208461,7.95799651 C5.25783336,8.8175992 5.24636263,9.68024515 5.22388935,10.5410183 C5.21569597,10.8556441 5.32033715,11.0155321 5.60897825,11.1286008 C6.14388896,11.3383513 6.66451979,11.5841527 7.27036177,11.8496183 C7.27036177,11.2695269 7.27036177,10.7718376 7.27036177,10.2739141 C7.27036177,9.76849956 7.29189866,9.26168044 7.26263658,8.75767047 C7.24320656,8.42244415 7.37664162,8.26419486 7.66996465,8.12818474 C9.80867113,7.13608338 11.9394183,6.12712706 14.0727406,5.12355497 C15.5625313,4.42243567 17.0555994,3.72810517 18.5395377,3.01434466 C18.8359039,2.87177984 19.0812372,2.86499104 19.3822854,3.0049808 C20.4001374,3.47832411 21.4322693,3.92053257 22.4564419,4.38029828 C23.5215814,4.85855762 24.0550875,5.67602292 24.0508737,6.85423108 C24.0391689,10.0744638 24.0375302,13.2949306 24.0337847,16.5151634 C24.0326142,17.6685573 23.4991081,18.4860226 22.4505894,18.9382972 C19.3413185,20.2799048 16.2250246,21.6055938 13.1103695,22.9352624 C12.4043341,23.2367788 11.6891691,23.2459086 10.9824314,22.9450945 C7.83242769,21.603721 4.67914658,20.2693704 1.53920898,18.9045873 C0.533998209,18.4677631 0.0473113917,17.6313359 0.0250722154,16.540914 C0.00634448791,15.6239576 0.0117287096,14.706299 0.0100900334,13.7888745 C0.00611039132,11.504794 0.00751497088,9.22047944 2.38799007e-05,6.93639898 C-0.00418985877,5.6984962 0.549214487,4.84451183 1.68786032,4.34214054 C4.68359442,3.02066527 7.67511478,1.68935795 10.6624214,0.348920854 C11.2773932,0.0729209713 11.8944718,-0.0888397745 12.566329,0.0516181813 C12.6756521,0.0745596474 12.7891889,0.0930532783 12.8905528,0.137531631 C14.1907253,0.708259125 15.4892591,1.28320036 16.8395282,1.87967848 Z" id="Path" fill="#FFFFFF"></path>
                <path d="M19.8348318,12.2704787 C19.6466181,12.2238935 19.5169286,12.363181 19.3610203,12.4125753 C19.2502926,12.4474557 19.1479924,12.4863158 19.0538856,12.3833133 C18.9588424,12.2793744 19.0096413,12.1752014 19.0536515,12.0721989 C19.0976616,11.9691964 19.1426082,11.8666621 19.190598,11.7652983 C19.5424452,11.022978 19.8949946,10.2806577 20.2482464,9.53880556 C20.320114,9.38757916 20.3786382,9.227223 20.5158188,9.1171976 C20.6808569,8.98516712 20.8505769,8.9383478 21.0092944,9.11743169 C21.4184953,9.57860198 21.8220778,10.0446883 22.2284695,10.5081996 C22.3832073,10.6844743 22.3384949,10.8527897 22.2024847,11.0096345 C22.142556,11.0786929 22.0704543,11.1667133 21.9901591,11.1845046 C21.4018744,11.3148964 21.4065563,11.7395476 21.4180271,12.2152319 C21.4395639,13.1303155 21.3845512,14.0479741 21.4278591,14.961419 C21.4564189,15.5660905 21.2398796,15.9214492 20.6686839,16.0860191 C20.5080936,16.1323702 20.3596764,16.2185177 20.2009589,16.2735304 C20.019534,16.3365024 19.9088063,16.2519936 19.8839921,16.0722074 C19.8662007,15.9436883 19.8753305,15.8111897 19.8750964,15.6805638 C19.8746282,14.7273224 19.8772033,13.7743152 19.8727555,12.821308 C19.8718191,12.6380104 19.9111473,12.4497967 19.8348318,12.2704787 Z" id="Path" fill="#284A9F"></path>
                <path d="M14.8457609,14.1673713 C14.562504,14.0905876 14.4370282,14.2439209 14.2778425,14.2762262 C14.0645805,14.3197682 13.9583007,14.2123178 14.0151862,13.9971831 C14.0437459,13.8899668 14.0985245,13.7893053 14.1446416,13.6872392 C14.4667585,12.9713718 14.7874708,12.2548021 15.1142697,11.5410416 C15.1760712,11.4064361 15.2448956,11.268085 15.3406411,11.1575914 C15.5199591,10.95065 15.6660353,10.9452658 15.8537808,11.1547822 C16.2156941,11.5583647 16.5656685,11.973418 16.9090882,12.3929191 C17.148335,12.6848376 17.1457599,12.9556873 16.8142791,13.0717992 C16.169343,13.2974683 16.210544,13.7621501 16.2304422,14.2797376 C16.2636839,15.1388721 16.2479995,15.9998794 16.2840503,16.8590139 C16.3020758,17.2920926 16.1536585,17.552408 15.7475009,17.7282146 C14.8548906,18.1149421 14.8553588,18.1303925 14.8476336,17.1474209 C14.8396744,16.1569582 14.8457609,15.1669637 14.8457609,14.1673713 Z" id="Path" fill="#284A9F"></path>
                <path d="M22.3287976,16.3495045 C22.3938765,16.6880082 22.1153015,16.7816468 21.8493678,16.8930768 C20.434488,17.4858094 19.0207787,18.0815852 17.6066012,18.6759565 C16.2785712,19.2340428 14.950073,19.7916608 13.6220431,20.3490448 C13.5703077,20.3708158 13.5195088,20.3958641 13.4659006,20.4120168 C13.3326997,20.4518132 13.2009033,20.5962508 13.0590408,20.4473654 C12.9485472,20.3314876 13.0016871,19.9353961 13.1475293,19.8302868 C13.2519363,19.7551418 13.3792849,19.7106634 13.4993764,19.6596304 C16.2352633,18.4914884 18.9713843,17.3245168 21.7075053,16.1575453 C21.7936528,16.1207922 21.8786299,16.0812298 21.9671184,16.0510314 C22.2758918,15.9456879 22.3285635,15.9843139 22.3287976,16.3495045 Z" id="Path" fill="#284A9F"></path>
            </g>
        </g>
    </g>
</svg>